@startuml
class Course
{
  - courseName: String
  - instructor: Instructor
  - textbook: Textbook

  + Course()
  + getCourseName(): String
  + setCourseName(courseName: String): void
  + getInstructor(): Instructor
  + setInstructor(instructor: Instructor): void
  + getTextbook(): Textbook
  + setTextbook(textbook: Textbook): void
  + printCourseDetails(): void
}

class Instructor
{
  - firstName: String
  - lastName: String
  - officeNumber: String

  + getFirstName(): String
  + setFirstName(firstName: String): void
  + getLastName(): String
  + setLastName(lastName: String): void
  + getOfficeNumber(): String
  + setOfficeNumber(officeNumber: String): void
}

class Textbook
{
  - title: String
  - author: String
  - publisher: String

  + getTitle(): String
  + setTitle(title: String): void
  + getAuthor(): String
  + setAuthor(author: String): void
  + getPublisher(): String
  + setPublisher(publisher: String): void
}

Course "1" o-- "1" Instructor : teaches
Course "1" o-- "1" Textbook : uses
@enduml